<svg xmlns="http://www.w3.org/2000/svg" xmlns:xlink="http://www.w3.org/1999/xlink" width="48" zoomAndPan="magnify" viewBox="0 0 36 36.000001" height="48" preserveAspectRatio="xMidYMid meet" version="1.0">
<defs>
<clipPath id="1d25df048d"><path d="M 0.488281 0 L 35.511719 0 L 35.511719 35.027344 L 0.488281 35.027344 Z M 0.488281 0 " clip-rule="nonzero"/>
</clipPath>
<clipPath id="26020e5b83"><path d="M 0.816406 0.328125 L 35.113281 0.328125 L 35.113281 34.625 L 0.816406 34.625 Z M 0.816406 0.328125 " clip-rule="nonzero"/>
</clipPath>
</defs>
<g clip-path="url(#1d25df048d)">
<path fill="transparent" d="M 0.488281 0 L 35.511719 0 L 35.511719 35.027344 L 0.488281 35.027344 Z M 0.488281 0 " fill-opacity="1" fill-rule="nonzero"/>
<path fill="transparent" d="M 0.488281 0 L 35.511719 0 L 35.511719 35.027344 L 0.488281 35.027344 Z M 0.488281 0 " fill-opacity="1" fill-rule="nonzero"/>
</g>
<g clip-path="url(#26020e5b83)">
<path fill="#e1dad1" d="M 17.996094 34.695312 C 27.488281 34.695312 35.179688 27 35.179688 17.511719 C 35.179688 8.019531 27.488281 0.328125 17.996094 0.328125 C 8.507812 0.328125 0.816406 8.019531 0.816406 17.511719 C 0.816406 27 8.507812 34.695312 17.996094 34.695312 Z M 10.195312 10.199219 L 17.996094 16.445312 L 25.800781 10.199219 L 26.027344 10.011719 L 9.96875 10.011719 Z M 26.863281 11.488281 L 27.160156 11.238281 L 27.160156 24.175781 C 27.160156 24.636719 26.789062 25.007812 26.328125 25.007812 L 9.667969 25.007812 C 9.207031 25.007812 8.832031 24.636719 8.832031 24.175781 L 8.832031 11.238281 L 9.132812 11.488281 L 9.144531 11.496094 L 17.476562 18.160156 C 17.78125 18.40625 18.214844 18.40625 18.519531 18.160156 L 26.847656 11.496094 Z M 26.863281 11.488281 " fill-opacity="1" fill-rule="evenodd"/>
</g></svg>

