<svg
    xmlns="http://www.w3.org/2000/svg"
    width="48"
    height="48"
    viewBox="0 0 36 36"
  >
    <defs>
      <clipPath id="a">
        <path d="M.488 0h35.024v35.027H.488Zm0 0" />
      </clipPath>
      <clipPath id="b">
        <path d="M.863.438H35.16v34.296H.863Zm0 0" />
      </clipPath>
    </defs>
    <g fill="transparent" clipPath="url(#a)">
      <path d="M.488 0h35.024v35.027H.488Zm0 0" />
      <path d="M.488 0h35.024v35.027H.488Zm0 0" />
    </g>
    <g clipPath="url(#b)">
      <path
        fill="#f9f8f6"
        d="M18.008.45C8.535.45.863 8.12.863 17.593c0 8.504 6.203 15.57 14.325 16.906V22.879H10.82v-5.094h4.367V14.09c0-4.008 3.25-6.723 7.258-6.723 1.782 0 2.895.266 2.895.266v4.273h-2.895c-1.203 0-2.183.98-2.183 2.184v3.695h4.675l-.652 5.094h-4.023v11.695c8.386-1.113 14.86-8.297 14.86-16.98C35.136 8.12 27.46.449 18.007.449Zm0 0"
      />
    </g>
  </svg>