 <svg
    xmlns="http://www.w3.org/2000/svg"
    width="48"
    height="48"
    viewBox="0 0 36 36"
   
  >
    <defs>
      <clipPath id="a">
        <path d="M.488 0h35.024v35.027H.488Zm0 0" />
      </clipPath>
      <clipPath id="b">
        <path d="M.816.328h34.297v34.297H.816Zm0 0" />
      </clipPath>
    </defs>
    <g fill="transparent" clipPath="url(#a)">
      <path d="M.488 0h35.024v35.027H.488Zm0 0" />
      <path d="M.488 0h35.024v35.027H.488Zm0 0" />
    </g>
    <path
      fill="#f9f8f6"
      d="M17.996 13.703a3.816 3.816 0 0 0-3.808 3.809 3.816 3.816 0 0 0 3.808 3.808 3.816 3.816 0 0 0 3.809-3.808 3.816 3.816 0 0 0-3.809-3.809Zm0 0"
    />
    <path
      fill="#f9f8f6"
      d="M23.117 8.168H12.88a4.231 4.231 0 0 0-4.223 4.227v10.234a4.231 4.231 0 0 0 4.223 4.226h10.238c2.32 0 4.223-1.89 4.223-4.226V12.395c-.016-2.336-1.902-4.227-4.223-4.227Zm-5.12 15.07a5.746 5.746 0 0 1-5.743-5.742 5.746 5.746 0 0 1 5.742-5.742 5.744 5.744 0 0 1 5.742 5.742c-.011 3.168-2.586 5.742-5.742 5.742Zm6.144-10.515a1.391 1.391 0 0 1-1.383-1.387 1.39 1.39 0 0 1 1.383-1.383c.761 0 1.386.625 1.386 1.383 0 .773-.613 1.387-1.386 1.387Zm0 0"
    />
    <g clipPath="url(#b)">
      <path
        fill="#f9f8f6"
        d="M17.996.328C8.508.328.816 8.02.816 17.512s7.692 17.183 17.18 17.183c9.492 0 17.184-7.691 17.184-17.183C35.164 8.02 27.473.328 17.996.328Zm11.262 22.3c0 3.392-2.766 6.161-6.156 6.161H12.879c-3.39 0-6.156-2.77-6.156-6.16V12.395c0-3.395 2.765-6.16 6.156-6.16h10.238c3.39 0 6.156 2.765 6.156 6.16v10.234Zm0 0"
      />
    </g>
  </svg>