

<svg xmlns="http://www.w3.org/2000/svg" xmlns:xlink="http://www.w3.org/1999/xlink" width="48" zoomAndPan="magnify" viewBox="0 0 36 36.000001" height="48" preserveAspectRatio="xMidYMid meet" version="1.0">
<defs>
<clipPath id="834ff25105"><path d="M 0.488281 0 L 35.511719 0 L 35.511719 35.027344 L 0.488281 35.027344 Z M 0.488281 0 " clip-rule="nonzero"/></clipPath>
<clipPath id="a5ff631d0e"><path d="M 0.925781 0.4375 L 35.222656 0.4375 L 35.222656 34.734375 L 0.925781 34.734375 Z M 0.925781 0.4375 " clip-rule="nonzero"/></clipPath></defs>
<g clip-path="url(#834ff25105)"><path fill="transparent" d="M 0.488281 0 L 35.511719 0 L 35.511719 35.027344 L 0.488281 35.027344 Z M 0.488281 0 " fill-opacity="1" fill-rule="nonzero"/>
<path fill="transparent" d="M 0.488281 0 L 35.511719 0 L 35.511719 35.027344 L 0.488281 35.027344 Z M 0.488281 0 " fill-opacity="1" fill-rule="nonzero"/></g>
<g clip-path="url(#a5ff631d0e)">
<path fill="#e1dad1" d="M 35.074219 17.511719 C 35.074219 18.070312 35.046875 18.628906 34.992188 19.1875 C 34.9375 19.742188 34.855469 20.296875 34.746094 20.84375 C 34.636719 21.390625 34.5 21.933594 34.339844 22.46875 C 34.175781 23.003906 33.988281 23.53125 33.773438 24.046875 C 33.558594 24.5625 33.320312 25.066406 33.058594 25.5625 C 32.792969 26.054688 32.507812 26.535156 32.195312 27 C 31.886719 27.464844 31.550781 27.910156 31.199219 28.34375 C 30.84375 28.777344 30.46875 29.191406 30.074219 29.585938 C 29.675781 29.980469 29.261719 30.355469 28.832031 30.710938 C 28.398438 31.066406 27.949219 31.398438 27.484375 31.710938 C 27.019531 32.019531 26.539062 32.308594 26.046875 32.570312 C 25.554688 32.835938 25.050781 33.074219 24.53125 33.289062 C 24.015625 33.5 23.492188 33.6875 22.957031 33.851562 C 22.421875 34.015625 21.878906 34.148438 21.328125 34.257812 C 20.78125 34.367188 20.230469 34.449219 19.671875 34.503906 C 19.117188 34.558594 18.558594 34.585938 18 34.585938 C 17.441406 34.585938 16.882812 34.558594 16.324219 34.503906 C 15.769531 34.449219 15.214844 34.367188 14.667969 34.257812 C 14.121094 34.148438 13.578125 34.015625 13.042969 33.851562 C 12.507812 33.6875 11.980469 33.5 11.464844 33.289062 C 10.949219 33.074219 10.441406 32.835938 9.949219 32.570312 C 9.457031 32.308594 8.976562 32.019531 8.511719 31.710938 C 8.046875 31.398438 7.597656 31.066406 7.167969 30.710938 C 6.734375 30.355469 6.320312 29.980469 5.925781 29.585938 C 5.53125 29.191406 5.15625 28.777344 4.800781 28.34375 C 4.445312 27.910156 4.113281 27.464844 3.800781 27 C 3.492188 26.535156 3.203125 26.054688 2.941406 25.5625 C 2.675781 25.066406 2.4375 24.5625 2.222656 24.046875 C 2.011719 23.53125 1.820312 23.003906 1.660156 22.46875 C 1.496094 21.933594 1.363281 21.390625 1.253906 20.84375 C 1.144531 20.296875 1.0625 19.742188 1.007812 19.1875 C 0.953125 18.628906 0.925781 18.070312 0.925781 17.511719 C 0.925781 16.953125 0.953125 16.394531 1.007812 15.839844 C 1.0625 15.28125 1.144531 14.730469 1.253906 14.179688 C 1.363281 13.632812 1.496094 13.089844 1.660156 12.554688 C 1.820312 12.019531 2.011719 11.496094 2.222656 10.976562 C 2.4375 10.460938 2.675781 9.957031 2.941406 9.464844 C 3.203125 8.96875 3.492188 8.492188 3.800781 8.027344 C 4.113281 7.5625 4.445312 7.113281 4.800781 6.679688 C 5.15625 6.25 5.53125 5.835938 5.925781 5.4375 C 6.320312 5.042969 6.734375 4.667969 7.167969 4.3125 C 7.597656 3.957031 8.046875 3.625 8.511719 3.316406 C 8.976562 3.003906 9.457031 2.71875 9.949219 2.453125 C 10.441406 2.191406 10.949219 1.953125 11.464844 1.738281 C 11.980469 1.523438 12.507812 1.335938 13.042969 1.171875 C 13.578125 1.011719 14.121094 0.875 14.667969 0.765625 C 15.214844 0.65625 15.769531 0.574219 16.324219 0.519531 C 16.882812 0.464844 17.441406 0.4375 18 0.4375 C 18.558594 0.4375 19.117188 0.464844 19.671875 0.519531 C 20.230469 0.574219 20.78125 0.65625 21.328125 0.765625 C 21.878906 0.875 22.421875 1.011719 22.957031 1.171875 C 23.492188 1.335938 24.015625 1.523438 24.53125 1.738281 C 25.050781 1.953125 25.554688 2.191406 26.046875 2.453125 C 26.539062 2.71875 27.019531 3.003906 27.484375 3.316406 C 27.949219 3.625 28.398438 3.957031 28.832031 4.3125 C 29.261719 4.667969 29.675781 5.042969 30.074219 5.4375 C 30.46875 5.835938 30.84375 6.25 31.199219 6.679688 C 31.550781 7.113281 31.886719 7.5625 32.195312 8.027344 C 32.507812 8.492188 32.792969 8.96875 33.058594 9.464844 C 33.320312 9.957031 33.558594 10.460938 33.773438 10.976562 C 33.988281 11.496094 34.175781 12.019531 34.339844 12.554688 C 34.5 13.089844 34.636719 13.632812 34.746094 14.179688 C 34.855469 14.730469 34.9375 15.28125 34.992188 15.839844 C 35.046875 16.394531 35.074219 16.953125 35.074219 17.511719 Z M 35.074219 17.511719 " fill-opacity="1" fill-rule="nonzero"/></g>
<path fill="#A17D60" d="M 26.417969 21.921875 C 23.660156 19.578125 22.84375 20.695312 21.621094 22.023438 C 20.699219 22.941406 18.453125 21 16.507812 19.058594 C 14.574219 17.019531 12.632812 14.773438 13.546875 13.851562 C 14.878906 12.527344 16 11.703125 13.652344 8.847656 C 11.40625 5.992188 9.976562 8.238281 8.652344 9.464844 C 7.328125 10.898438 8.652344 16.304688 13.859375 21.71875 C 19.167969 27.132812 24.476562 28.457031 25.90625 27.023438 C 27.132812 25.808594 29.273438 24.277344 26.417969 21.921875 Z M 26.417969 21.921875 " fill-opacity="1" fill-rule="evenodd"/>
</svg>